<svg width="30" height="30" viewBox="0 0 30 30" fill="none" xmlns="http://www.w3.org/2000/svg">
<path d="M15 3C12.613 3 10.3239 3.94821 8.63602 5.63604C6.9482 7.32387 5.99999 9.61305 5.99999 12V17.379L4.93949 18.4395C4.72977 18.6493 4.58696 18.9165 4.52911 19.2075C4.47126 19.4984 4.50096 19.7999 4.61447 20.074C4.72797 20.348 4.92018 20.5823 5.1668 20.7471C5.41341 20.9119 5.70336 20.9999 5.99999 21H24C24.2966 20.9999 24.5866 20.9119 24.8332 20.7471C25.0798 20.5823 25.272 20.348 25.3855 20.074C25.499 19.7999 25.5287 19.4984 25.4709 19.2075C25.413 18.9165 25.2702 18.6493 25.0605 18.4395L24 17.379V12C24 9.61305 23.0518 7.32387 21.3639 5.63604C19.6761 3.94821 17.3869 3 15 3ZM15 27C13.8065 27 12.6619 26.5259 11.818 25.682C10.9741 24.8381 10.5 23.6935 10.5 22.5H19.5C19.5 23.6935 19.0259 24.8381 18.182 25.682C17.3381 26.5259 16.1935 27 15 27Z" fill="white"/>
</svg>
