<svg width="30" height="30" viewBox="0 0 30 30" fill="none" xmlns="http://www.w3.org/2000/svg">
<path fill-rule="evenodd" clip-rule="evenodd" d="M17.235 4.755C16.665 2.415 13.335 2.415 12.765 4.755C12.6799 5.10662 12.513 5.43319 12.2778 5.70812C12.0427 5.98305 11.7459 6.19857 11.4118 6.33716C11.0776 6.47574 10.7154 6.53346 10.3547 6.50563C9.99399 6.4778 9.64496 6.36521 9.33599 6.177C7.27799 4.923 4.92299 7.278 6.17699 9.336C6.98699 10.665 6.26849 12.399 4.75649 12.7665C2.41499 13.335 2.41499 16.6665 4.75649 17.2335C5.10821 17.3187 5.43483 17.4858 5.70976 17.7211C5.98469 17.9564 6.20015 18.2534 6.3386 18.5877C6.47705 18.9221 6.53458 19.2844 6.50649 19.6452C6.47841 20.006 6.36551 20.3551 6.17699 20.664C4.92299 22.722 7.27799 25.077 9.33599 23.823C9.6449 23.6345 9.99397 23.5216 10.3548 23.4935C10.7156 23.4654 11.0779 23.5229 11.4123 23.6614C11.7466 23.7998 12.0436 24.0153 12.2789 24.2902C12.5142 24.5652 12.6813 24.8918 12.7665 25.2435C13.335 27.585 16.6665 27.585 17.2335 25.2435C17.319 24.892 17.4862 24.5656 17.7216 24.2908C17.957 24.0161 18.2539 23.8008 18.5881 23.6624C18.9224 23.5239 19.2846 23.4664 19.6453 23.4943C20.006 23.5222 20.355 23.6348 20.664 23.823C22.722 25.077 25.077 22.722 23.823 20.664C23.6348 20.355 23.5222 20.006 23.4943 19.6453C23.4663 19.2846 23.5239 18.9224 23.6623 18.5881C23.8008 18.2539 24.0161 17.957 24.2908 17.7216C24.5656 17.4862 24.892 17.319 25.2435 17.2335C27.585 16.665 27.585 13.3335 25.2435 12.7665C24.8918 12.6813 24.5652 12.5142 24.2902 12.2789C24.0153 12.0436 23.7998 11.7466 23.6614 11.4123C23.5229 11.0779 23.4654 10.7156 23.4935 10.3548C23.5216 9.99398 23.6345 9.64491 23.823 9.336C25.077 7.278 22.722 4.923 20.664 6.177C20.3551 6.36552 20.006 6.47842 19.6452 6.5065C19.2844 6.53459 18.9221 6.47706 18.5877 6.33861C18.2534 6.20016 17.9564 5.9847 17.7211 5.70977C17.4858 5.43484 17.3187 5.10822 17.2335 4.7565L17.235 4.755ZM15 19.5C16.1935 19.5 17.3381 19.0259 18.182 18.182C19.0259 17.3381 19.5 16.1935 19.5 15C19.5 13.8065 19.0259 12.6619 18.182 11.818C17.3381 10.9741 16.1935 10.5 15 10.5C13.8065 10.5 12.6619 10.9741 11.818 11.818C10.9741 12.6619 10.5 13.8065 10.5 15C10.5 16.1935 10.9741 17.3381 11.818 18.182C12.6619 19.0259 13.8065 19.5 15 19.5Z" fill="white"/>
</svg>
