<svg width="25" height="19" viewBox="0 0 25 19" fill="none" xmlns="http://www.w3.org/2000/svg">
<path d="M23 5.99985C23.4641 5.99985 23.9092 5.81547 24.2374 5.48728C24.5656 5.15909 24.75 4.71398 24.75 4.24985C24.75 3.78572 24.5656 3.3406 24.2374 3.01241C23.9092 2.68422 23.4641 2.49985 23 2.49985L20.781 2.49985C20.4738 1.96782 20.032 1.52603 19.4999 1.21887C18.9679 0.911707 18.3643 0.75 17.75 0.75C17.1357 0.75 16.5321 0.911707 16.0001 1.21887C15.468 1.52603 15.0262 1.96782 14.719 2.49985L2 2.49985C1.53587 2.49985 1.09075 2.68422 0.762562 3.01241C0.434374 3.3406 0.25 3.78572 0.25 4.24985C0.25 4.71397 0.434374 5.15909 0.762562 5.48728C1.09075 5.81547 1.53587 5.99985 2 5.99985L14.719 5.99985C15.0262 6.53187 15.468 6.97366 16.0001 7.28083C16.5321 7.58799 17.1357 7.74969 17.75 7.74969C18.3643 7.74969 18.9679 7.58799 19.4999 7.28083C20.032 6.97366 20.4738 6.53187 20.781 5.99985L23 5.99985ZM24.75 14.7498C24.75 15.214 24.5656 15.6591 24.2374 15.9873C23.9092 16.3155 23.4641 16.4998 23 16.4998L10.281 16.4998C9.9738 17.0319 9.53197 17.4737 8.99992 17.7808C8.46787 18.088 7.86435 18.2497 7.25 18.2497C6.63565 18.2497 6.03212 18.088 5.50008 17.7808C4.96803 17.4737 4.5262 17.0319 4.219 16.4998L2 16.4998C1.53587 16.4998 1.09075 16.3155 0.762561 15.9873C0.434373 15.6591 0.249999 15.214 0.249999 14.7498C0.249999 14.2857 0.434373 13.8406 0.762561 13.5124C1.09075 13.1842 1.53587 12.9998 2 12.9998L4.219 12.9998C4.5262 12.4678 4.96803 12.026 5.50008 11.7189C6.03213 11.4117 6.63565 11.25 7.25 11.25C7.86435 11.25 8.46787 11.4117 8.99992 11.7189C9.53197 12.026 9.9738 12.4678 10.281 12.9998L23 12.9998C23.4641 12.9998 23.9092 13.1842 24.2374 13.5124C24.5656 13.8406 24.75 14.2857 24.75 14.7498Z" fill="white"/>
</svg>
